<svg id="Group_1" data-name="Group 1" xmlns="http://www.w3.org/2000/svg" width="19.001" height="19.001" viewBox="0 0 19.001 19.001">
  <path id="Path_1" data-name="Path 1" d="M17.728,4.752l-2.2-1.273-1.273-2.2H11.705L9.5,0,7.3,1.275H4.75L3.477,3.48l-2.2,1.273V7.3L0,9.5l1.273,2.2v2.545l2.2,1.273,1.273,2.2H7.3L9.5,19l2.2-1.273h2.545l1.273-2.2,2.2-1.273V11.707L19,9.5,17.728,7.3V4.752ZM8.643,13.391a.925.925,0,0,1-1.286,0L4.579,10.612a.892.892,0,0,1,0-1.261l.736-.736a.892.892,0,0,1,1.261,0L8,10.041l4.425-4.426a.892.892,0,0,1,1.261,0l.736.736a.892.892,0,0,1,0,1.261Z" transform="translate(0 -0.002)" fill="#708aaa"/>
</svg>
