<?xml version="1.0" encoding="utf-8"?>
<!-- Generator: Adobe Illustrator 15.0.0, SVG Export Plug-In . SVG Version: 6.00 Build 0)  -->
<!DOCTYPE svg PUBLIC "-//W3C//DTD SVG 1.1//EN" "http://www.w3.org/Graphics/SVG/1.1/DTD/svg11.dtd">
<svg version="1.1" id="Layer_1" xmlns:svgjs="http://svgjs.com/svgjs"
	 xmlns="http://www.w3.org/2000/svg" xmlns:xlink="http://www.w3.org/1999/xlink" x="0px" y="0px" width="512px" height="512px"
	 viewBox="0 0 512 512" enable-background="new 0 0 512 512" xml:space="preserve">
<g>
	<g>
		<g>
			<path fill="#D3C117" d="M256,0C150.112,0,64,86.112,64,192c0,133.088,173.312,307.936,180.672,315.328
				C247.808,510.432,251.904,512,256,512c4.096,0,8.191-1.568,11.328-4.672C274.688,499.936,448,325.088,448,192
				C448,86.112,361.888,0,256,0z M256,288c-52.929,0-96-43.072-96-96s43.071-96,96-96c52.928,0,96,43.072,96,96S308.928,288,256,288
				z"/>
		</g>
	</g>
</g>
<polygon fill="#D3C117" stroke="#D3C117" stroke-miterlimit="10" points="382.119,309.5 141.5,298.563 141.5,79.818 382.119,90.756 
	"/>
</svg>
