<svg xmlns="http://www.w3.org/2000/svg" width="17" height="22.351" viewBox="0 0 17 22.351">
  <g id="man-user" transform="translate(-41.895)">
    <path id="Path_20" data-name="Path 20" d="M109.035,10.931c2.485,0,4.5-2.447,4.5-5.465S112.873,0,109.035,0s-4.5,2.447-4.5,5.466S106.55,10.931,109.035,10.931Z" transform="translate(-58.64)" fill="#727272"/>
    <path id="Path_21" data-name="Path 21" d="M41.9,300.466c0-.184,0-.052,0,0Z" transform="translate(0 -281.19)" fill="#727272"/>
    <path id="Path_22" data-name="Path 22" d="M308.085,301.653c0-.05,0-.35,0,0Z" transform="translate(-249.191 -282.233)" fill="#727272"/>
    <path id="Path_23" data-name="Path 23" d="M58.9,185.445c-.083-5.258-.77-6.757-6.025-7.705a3.692,3.692,0,0,1-4.928,0c-5.2.938-5.926,2.414-6.022,7.534-.008.418-.011.44-.013.392,0,.091,0,.259,0,.552,0,0,1.251,2.522,8.5,2.522s8.5-2.522,8.5-2.522c0-.188,0-.319,0-.409A3.384,3.384,0,0,1,58.9,185.445Z" transform="translate(-0.012 -166.39)" fill="#727272"/>
  </g>
</svg>
