<svg xmlns="http://www.w3.org/2000/svg" width="30" height="30" viewBox="0 0 30 30">
  <g id="Group_16" data-name="Group 16" transform="translate(-318 -20)">
    <circle id="Ellipse_10" data-name="Ellipse 10" cx="15" cy="15" r="15" transform="translate(318 20)" fill="rgba(211,193,23,0.5)"/>
    <g id="funnel" transform="translate(298.317 28)">
      <g id="Group_5" data-name="Group 5" transform="translate(27.828)">
        <path id="Path_19" data-name="Path 19" d="M42.345,2.736c0-.013,0-.026,0-.039V.434A.422.422,0,0,0,41.933,0H28.251a.418.418,0,0,0-.417.421V2.7c0,.013-.009.026,0,.039s0,.013,0,.017v.022a.039.039,0,0,0,0,.022.033.033,0,0,1,0,.017.188.188,0,0,1,0,.022s0,.013,0,.017,0,.013.009.022,0,.013.009.017,0,.013.009.017a.033.033,0,0,1,.009.017s.009.013.009.017.009.013.013.017.009.009.009.013a.021.021,0,0,1,.013,0L33.133,9.1v7.4a.42.42,0,0,0,.239.391.433.433,0,0,0,.182.043.425.425,0,0,0,.269-.1l3.066-2.489a.422.422,0,0,0,.152-.339V9.1l5.2-6.124a.013.013,0,0,0,.009,0l.013-.013s.009-.013.013-.017.009-.013.013-.017a28721828510.091,28721828510.091,0,0,0,.017-.035s0-.013.009-.017,0-.013.009-.022a.026.026,0,0,0,0-.017.039.039,0,0,0,0-.022c0-.009,0-.013,0-.017a.188.188,0,0,0,0-.022.188.188,0,0,1,0-.022S42.341,2.741,42.345,2.736ZM36.286,8.661a.452.452,0,0,0-.113.282v4.865L34,15.593V8.943a.452.452,0,0,0-.113-.282l-4.7-5.533h11.8Zm5.186-6.4H28.7V.869h12.77Z" transform="translate(-27.828)" fill="#fff"/>
      </g>
    </g>
  </g>
</svg>
